# xmcd
#
# Track frame offsets:
# 209
# 17267
# 29050
# 42774
# 54243
# 64895
# 78405
# 91532
# 104473
# 113179
# 123173
# 138221
# 147800
#
# Disc length: 2078 seconds
#
#
# Revision: 0
# Processed by: cddbd v1.5.1PL0 Copyright (c) Steve Scherf et al.
# Submitted via: FreeRIP 2.941 
#
DISCID=9e081c0d
DTITLE=Willie Nelson - I Let My Mind Wander
DYEAR=1997
DGENRE=Country
TTITLE0=I Let My Mind Wander
TTITLE1=December Day
TTITLE2=Undo The Wrong
TTITLE3=Suffer In Silence
TTITLE4=I Feel Sorry For Him
TTITLE5=You'll Always Have Someone
TTITLE6=I Just Don't Understand
TTITLE7=Any Old Arms Won't Do
TTITLE8=Slow Down Old World
TTITLE9=Healing Hands Of Time
TTITLE10=And So Will You Love Me
TTITLE11=One Step Beyond
TTITLE12=You Wouldn't Cross The Street To Say Goodbye
EXTD=KF6 0019   Kingfisher Records
EXTT0=
EXTT1=
EXTT2=
EXTT3=
EXTT4=
EXTT5=
EXTT6=
EXTT7=
EXTT8=
EXTT9=
EXTT10=
EXTT11=
EXTT12=
PLAYORDER=
